<?xml version="1.0" standalone="no"?>
<!DOCTYPE svg PUBLIC "-//W3C//DTD SVG 20010904//EN"
 "http://www.w3.org/TR/2001/REC-SVG-20010904/DTD/svg10.dtd">
<svg version="1.0" xmlns="http://www.w3.org/2000/svg"
 width="500.000000pt" height="500.000000pt" viewBox="0 0 500.000000 500.000000"
 preserveAspectRatio="xMidYMid meet">

<g transform="translate(0.000000,500.000000) scale(0.100000,-0.100000)"
fill="#000000" stroke="none">
<path d="M0 2500 l0 -2500 2500 0 2500 0 0 2500 0 2500 -2500 0 -2500 0 0
-2500z m1128 848 c-3 -22 -8 -23 -123 -28 -129 -6 -157 -15 -174 -60 -20 -52
-22 -94 -11 -245 18 -247 -11 -367 -113 -462 l-50 -47 24 -15 c42 -28 81 -75
106 -128 39 -86 47 -161 35 -345 -13 -200 -6 -250 41 -294 40 -37 98 -49 191
-39 48 5 65 4 74 -8 21 -25 -12 -40 -103 -44 -104 -5 -159 9 -201 51 -49 49
-58 112 -44 305 15 215 -1 313 -66 398 -33 44 -101 82 -155 87 -38 3 -44 7
-44 27 0 21 6 25 50 30 65 8 103 28 148 78 56 62 71 127 66 291 -8 291 -6 322
21 375 39 76 85 95 222 95 108 0 109 0 106 -22z m3003 -1 c32 -17 50 -37 69
-72 27 -53 29 -84 21 -375 -5 -164 10 -229 66 -291 45 -50 83 -70 148 -78 44
-5 50 -9 50 -30 0 -20 -6 -24 -44 -27 -54 -5 -122 -43 -155 -87 -65 -85 -81
-183 -66 -398 14 -193 5 -256 -44 -305 -42 -42 -97 -56 -201 -51 -91 4 -124
19 -103 44 9 12 26 13 74 8 93 -10 151 2 191 39 47 44 54 94 41 294 -12 184
-4 259 35 345 25 53 64 100 106 128 l24 15 -50 47 c-102 95 -131 215 -113 462
11 151 9 193 -11 245 -17 45 -45 54 -174 60 -115 5 -120 6 -123 28 -3 22 -2
22 106 22 95 0 115 -3 153 -23z m-691 -607 l0 -60 27 11 c34 13 67 5 93 -23
17 -18 20 -35 20 -105 0 -76 -2 -83 -20 -83 -17 0 -19 8 -22 81 -3 93 -16 111
-65 93 -27 -9 -28 -12 -31 -92 -3 -74 -5 -82 -22 -82 -19 0 -20 8 -20 160 0
153 1 160 20 160 18 0 20 -7 20 -60z m-2138 -94 c27 -74 51 -141 54 -150 5
-12 0 -16 -18 -16 -20 0 -27 7 -37 40 l-12 40 -59 0 -59 0 -12 -40 c-10 -33
-17 -40 -37 -40 -19 0 -23 4 -17 18 4 9 27 73 51 141 53 147 50 141 77 141 19
0 28 -17 69 -134z m368 114 c0 -13 -7 -20 -20 -20 -13 0 -20 7 -20 20 0 13 7
20 20 20 13 0 20 -7 20 -20z m500 0 c24 -24 26 -67 5 -97 -14 -20 -14 -22 3
-27 21 -7 42 -46 42 -77 0 -11 -13 -34 -29 -50 -27 -27 -35 -29 -105 -29 l-76
0 0 150 0 150 70 0 c57 0 74 -4 90 -20z m840 0 c0 -18 -7 -20 -70 -20 l-70 0
0 -39 0 -40 52 -3 c41 -2 54 -7 56 -20 3 -15 -5 -18 -52 -18 l-56 0 0 -70 c0
-68 -1 -70 -25 -70 l-25 0 0 150 0 150 95 0 c88 0 95 -1 95 -20z m890 -40 c0
-25 4 -30 25 -30 16 0 25 -6 25 -15 0 -9 -9 -15 -25 -15 -24 0 -25 -2 -25 -75
0 -73 1 -75 25 -75 19 0 25 -5 25 -21 0 -19 -4 -21 -32 -15 -52 10 -58 21 -58
107 0 72 -2 79 -20 79 -11 0 -20 7 -20 15 0 8 9 15 20 15 16 0 20 7 20 30 0
23 4 30 20 30 16 0 20 -7 20 -30z m-2342 -56 c19 -21 22 -36 22 -105 0 -72 -2
-79 -20 -79 -18 0 -20 7 -20 74 0 80 -13 106 -51 106 -50 0 -59 -16 -59 -100
0 -73 -2 -80 -20 -80 -19 0 -20 7 -20 105 0 87 3 105 15 105 8 0 15 -5 15 -10
0 -6 12 -4 28 5 36 20 81 11 110 -21z m270 30 c12 -4 22 -14 22 -24 0 -15 -7
-17 -45 -12 -41 4 -45 3 -45 -16 0 -15 12 -27 44 -41 52 -23 70 -49 57 -84
-11 -27 -39 -40 -83 -39 -46 1 -68 12 -68 34 0 15 4 18 18 12 9 -4 33 -8 52
-8 29 -1 36 3 38 21 3 18 -4 24 -38 34 -51 15 -62 29 -58 71 4 46 48 67 106
52z m590 -30 c15 -17 22 -36 20 -53 -3 -25 -6 -26 -75 -29 -80 -3 -91 -14 -52
-53 18 -18 29 -21 70 -16 39 5 49 3 49 -8 0 -18 -43 -29 -97 -26 -33 2 -82 48
-88 85 -20 105 105 177 173 100z m230 0 c19 -21 22 -36 22 -105 0 -72 -2 -79
-20 -79 -18 0 -20 7 -20 74 0 80 -13 106 -51 106 -50 0 -59 -16 -59 -100 0
-73 -2 -80 -20 -80 -19 0 -20 7 -20 105 0 87 3 105 15 105 8 0 15 -5 15 -10 0
-6 12 -4 28 5 36 20 81 11 110 -21z m518 26 c37 -14 53 -38 54 -77 l0 -33 -75
0 c-82 0 -89 -7 -49 -47 22 -22 31 -25 71 -19 39 5 44 4 41 -12 -8 -39 -118
-30 -155 13 -45 51 -21 150 41 175 29 12 40 12 72 0z m204 -14 c0 -18 -7 -25
-30 -29 l-30 -6 0 -81 c0 -79 0 -80 -25 -80 l-25 0 0 105 c0 98 1 105 20 105
12 0 20 -7 20 -16 0 -13 5 -12 26 5 34 27 44 26 44 -3z m373 13 c33 -18 37
-28 37 -96 0 -41 5 -67 15 -77 8 -8 15 -19 15 -25 0 -14 -47 -14 -55 -1 -4 7
-12 7 -25 0 -28 -15 -77 -12 -94 6 -9 8 -16 29 -16 45 0 22 8 34 33 49 17 11
45 20 60 20 24 0 28 4 25 23 -4 26 -45 35 -78 17 -19 -10 -21 -9 -18 11 4 33
62 48 101 28z m-2073 -104 c0 -98 -1 -105 -20 -105 -19 0 -20 7 -20 105 0 98
1 105 20 105 19 0 20 -7 20 -105z m710 -514 l0 -98 -49 -1 c-57 -2 -75 13 -75
63 0 44 19 65 60 65 32 0 34 2 34 35 0 24 5 35 15 35 12 0 15 -18 15 -99z
m720 9 c0 -53 4 -90 10 -90 6 0 10 -4 10 -10 0 -16 -37 -11 -44 6 -3 9 -6 54
-6 100 0 68 3 84 15 84 12 0 15 -17 15 -90z m-1620 65 c0 -11 -12 -15 -45 -15
-41 0 -45 -2 -45 -25 0 -22 4 -25 35 -25 19 0 35 -4 35 -10 0 -5 -16 -10 -35
-10 -35 0 -35 0 -35 -45 0 -33 -4 -45 -15 -45 -12 0 -15 17 -15 95 l0 95 60 0
c47 0 60 -3 60 -15z m1131 -14 c21 -22 29 -39 29 -66 0 -57 -44 -95 -109 -95
l-51 0 0 95 0 95 51 0 c43 0 55 -5 80 -29z m-691 -11 c0 -11 7 -20 15 -20 8 0
15 -4 15 -10 0 -5 -7 -10 -15 -10 -11 0 -15 -12 -15 -45 0 -33 4 -45 15 -45 8
0 15 -4 15 -10 0 -16 -47 -11 -54 6 -3 9 -6 33 -6 54 0 21 -6 41 -12 43 -9 4
-10 8 -2 14 6 4 13 16 17 26 9 23 27 22 27 -3z m-350 -30 c0 -5 -9 -12 -20
-15 -16 -5 -20 -15 -20 -56 0 -37 -4 -49 -15 -49 -12 0 -15 14 -15 63 l0 63
35 1 c19 1 35 -3 35 -7z m121 -6 c20 -24 16 -84 -6 -100 -25 -19 -64 -18 -87
3 -22 20 -24 76 -2 97 20 21 78 21 95 0z m145 5 c16 -13 20 -119 4 -119 -5 0
-10 19 -10 43 0 53 -11 70 -41 65 -21 -3 -24 -9 -27 -55 -2 -38 -7 -53 -18
-53 -11 0 -14 15 -14 63 l0 64 46 2 c26 0 53 -4 60 -10z m239 -5 c29 -29 15
-49 -38 -52 -44 -3 -46 -4 -36 -24 8 -15 18 -19 45 -16 23 3 34 0 34 -9 0 -19
-70 -16 -92 4 -20 18 -24 64 -8 94 13 24 72 26 95 3z m141 5 c16 -13 20 -119
4 -119 -5 0 -10 13 -10 29 0 51 -17 83 -43 79 -19 -3 -22 -10 -25 -55 -2 -38
-7 -53 -18 -53 -11 0 -14 15 -14 63 l0 64 46 2 c26 0 53 -4 60 -10z m554 -10
c18 -33 5 -49 -40 -49 -29 0 -40 -4 -40 -15 0 -16 42 -30 65 -21 9 3 15 0 15
-9 0 -21 -68 -20 -92 2 -22 20 -23 70 -1 95 23 26 79 24 93 -3z m60 -16 c18
-57 26 -59 42 -11 8 23 22 44 31 46 14 3 12 -6 -8 -59 -14 -34 -27 -64 -29
-67 -14 -13 -33 12 -53 67 -17 48 -19 61 -8 61 7 0 19 -17 25 -37z m210 16
c18 -33 5 -49 -40 -49 -29 0 -40 -4 -40 -15 0 -16 42 -30 65 -21 9 3 15 0 15
-9 0 -21 -68 -20 -92 2 -22 20 -23 70 -1 95 23 26 79 24 93 -3z m204 -1 c33
-47 7 -108 -46 -108 -17 0 -40 7 -50 17 -22 20 -23 70 -1 95 23 26 78 24 97
-4z m150 6 c9 -8 16 -30 16 -48 0 -43 -29 -70 -70 -64 -29 4 -30 3 -30 -34 0
-21 -4 -38 -10 -38 -6 0 -10 39 -10 98 l0 99 44 1 c29 2 50 -3 60 -14z m141 0
c29 -29 15 -49 -38 -52 -44 -3 -46 -4 -36 -24 8 -15 18 -19 45 -16 23 3 34 0
34 -9 0 -19 -70 -16 -92 4 -20 18 -24 64 -8 94 13 24 72 26 95 3z m105 6 c0
-5 -9 -12 -20 -15 -16 -5 -20 -15 -20 -56 0 -37 -4 -49 -15 -49 -12 0 -15 14
-15 63 l0 63 35 1 c19 1 35 -3 35 -7z"/>
<path d="M1211 2669 c-7 -23 -15 -47 -18 -55 -4 -11 5 -14 36 -14 23 0 41 3
41 6 0 14 -35 104 -41 104 -3 0 -11 -18 -18 -41z"/>
<path d="M2050 2700 c0 -40 0 -40 40 -40 29 0 42 5 50 20 18 34 -4 60 -50 60
-40 0 -40 0 -40 -40z"/>
<path d="M2050 2570 l0 -50 48 0 c55 0 72 12 72 52 0 33 -24 48 -79 48 l-41 0
0 -50z"/>
<path d="M2306 2644 c-26 -26 -18 -34 33 -34 55 0 69 10 45 34 -20 20 -58 20
-78 0z"/>
<path d="M3092 2648 c-26 -26 -13 -38 38 -38 34 0 50 4 50 13 0 21 -22 37 -50
37 -14 0 -31 -5 -38 -12z"/>
<path d="M3670 2565 c-17 -21 -8 -50 18 -53 30 -5 52 14 52 44 0 20 -5 24 -29
24 -16 0 -34 -7 -41 -15z"/>
<path d="M2292 2068 c-16 -16 -15 -53 3 -68 33 -28 71 12 54 58 -9 24 -38 29
-57 10z"/>
<path d="M2500 2065 c0 -71 9 -82 54 -71 37 9 56 34 56 70 0 42 -26 66 -73 66
l-37 0 0 -65z"/>
<path d="M1610 2066 c-28 -35 11 -93 48 -70 35 22 22 84 -18 84 -10 0 -23 -7
-30 -14z"/>
<path d="M2007 2074 c-15 -15 -6 -24 24 -24 20 0 29 4 27 13 -5 14 -40 21 -51
11z"/>
<path d="M2697 2074 c-15 -15 -6 -24 24 -24 20 0 29 4 27 13 -5 14 -40 21 -51
11z"/>
<path d="M2967 2074 c-15 -15 -6 -24 24 -24 20 0 29 4 27 13 -5 14 -40 21 -51
11z"/>
<path d="M3161 2061 c-14 -26 2 -71 26 -71 32 0 45 16 41 51 -2 28 -7 35 -30
37 -18 2 -30 -3 -37 -17z"/>
<path d="M3322 2068 c-29 -29 -4 -84 35 -76 28 5 26 82 -2 86 -11 1 -26 -3
-33 -10z"/>
<path d="M3467 2074 c-15 -15 -6 -24 24 -24 20 0 29 4 27 13 -5 14 -40 21 -51
11z"/>
</g>
</svg>
