<?xml version="1.0" standalone="no"?>
<!DOCTYPE svg PUBLIC "-//W3C//DTD SVG 20010904//EN"
 "http://www.w3.org/TR/2001/REC-SVG-20010904/DTD/svg10.dtd">
<svg version="1.0" xmlns="http://www.w3.org/2000/svg"
 width="500.000000pt" height="500.000000pt" viewBox="0 0 500.000000 500.000000"
 preserveAspectRatio="xMidYMid meet">

<g transform="translate(0.000000,500.000000) scale(0.100000,-0.100000)"
fill="#000000" stroke="none">
<path d="M3537 3283 c-14 -13 -7 -101 9 -117 23 -24 34 -11 34 40 0 62 -21 99
-43 77z"/>
<path d="M1722 3273 c-7 -3 -27 -33 -44 -66 -17 -34 -41 -75 -53 -92 -19 -25
-142 -259 -283 -539 -34 -67 -35 -93 -6 -103 6 -2 68 112 138 252 70 141 156
303 191 361 35 57 69 120 75 140 12 37 5 55 -18 47z"/>
<path d="M2762 3203 c-28 -90 -65 -255 -97 -431 -14 -79 -33 -173 -44 -210
-20 -74 -18 -92 9 -92 20 0 19 -2 61 208 l22 112 97 0 98 0 11 -47 c33 -135
75 -263 87 -263 24 0 23 17 -6 126 -16 60 -45 190 -65 289 -55 274 -91 375
-133 375 -15 0 -24 -16 -40 -67z m69 -60 c22 -50 73 -292 64 -301 -3 -3 -41
-7 -85 -10 l-80 -5 0 27 c0 52 64 336 76 336 3 0 14 -21 25 -47z"/>
<path d="M3547 3063 c-4 -3 -7 -136 -7 -295 0 -275 1 -288 19 -288 10 0 20 8
23 18 2 9 2 142 0 295 -3 211 -7 277 -16 277 -7 0 -16 -3 -19 -7z"/>
<path d="M3766 3055 c-54 -19 -67 -36 -73 -89 -5 -41 -1 -52 37 -110 23 -36
62 -82 87 -102 55 -45 103 -118 103 -155 0 -42 -45 -89 -85 -89 -51 0 -85 34
-93 94 -8 55 -27 70 -41 33 -24 -63 29 -145 108 -167 88 -23 151 32 151 135 0
61 -9 76 -95 165 -89 91 -125 144 -125 181 0 55 76 91 131 63 29 -14 39 -33
39 -69 0 -12 7 -28 15 -35 12 -10 16 -8 24 11 17 46 -16 115 -64 135 -42 17
-69 17 -119 -1z"/>
<path d="M3158 3039 c-21 -10 -43 -29 -50 -42 -20 -35 -24 -476 -5 -501 32
-43 37 -10 37 228 0 228 0 233 23 253 53 48 120 58 153 22 17 -19 19 -43 24
-260 4 -171 8 -242 18 -251 29 -29 34 7 30 258 -2 137 -8 257 -12 267 -23 48
-148 63 -218 26z"/>
<path d="M1055 2961 c-146 -92 -245 -176 -245 -208 0 -24 31 -47 151 -113 52
-29 135 -81 186 -116 92 -64 111 -68 99 -19 -8 30 -38 53 -206 155 -74 45
-139 86 -145 91 -15 16 95 114 168 150 127 64 178 100 175 123 -6 39 -41 27
-183 -63z"/>
<path d="M1820 3026 c0 -22 72 -79 173 -137 86 -50 167 -112 167 -129 0 -4
-46 -35 -102 -68 -179 -106 -243 -154 -246 -185 -2 -15 2 -27 8 -27 6 0 53 29
103 64 51 35 135 87 187 116 52 28 103 60 114 70 18 18 18 19 -2 52 -25 41
-125 117 -258 197 -101 60 -144 74 -144 47z"/>
<path d="M4084 2526 c-9 -22 15 -48 40 -44 15 2 21 10 21 28 0 20 -6 26 -28
28 -18 2 -29 -2 -33 -12z"/>
<path d="M2860 1991 l0 -58 -42 0 c-68 0 -81 -25 -76 -146 3 -85 6 -101 23
-113 29 -21 66 -29 84 -17 40 25 44 51 36 226 -4 92 -11 167 -16 167 -5 0 -9
-26 -9 -59z m-10 -81 c19 -12 27 -171 11 -212 -13 -34 -51 -38 -81 -8 -17 17
-20 33 -20 109 0 82 2 91 22 105 26 18 46 20 68 6z"/>
<path d="M1406 1857 c0 -100 2 -186 4 -192 2 -5 6 33 9 85 l6 95 40 6 40 5
-40 5 -40 4 -3 78 -3 77 38 2 c21 1 53 1 71 -1 22 -1 32 2 27 8 -3 6 -38 11
-78 11 l-72 0 1 -183z"/>
<path d="M3102 1850 l-2 -190 49 0 c61 0 96 13 111 39 6 12 11 81 12 157 l2
137 -28 23 c-22 19 -39 24 -84 24 l-58 0 -2 -190z m134 156 c17 -13 19 -27 19
-149 0 -162 -7 -177 -87 -177 l-48 0 0 170 0 170 48 0 c27 0 57 -6 68 -14z"/>
<path d="M2210 1981 c0 -43 -3 -50 -22 -54 l-23 -4 23 -8 c21 -7 22 -12 22
-112 0 -98 1 -105 25 -129 19 -19 31 -23 48 -18 24 7 37 22 37 43 0 10 -6 8
-20 -7 -25 -26 -33 -27 -55 -6 -13 13 -15 36 -13 122 l3 107 30 6 30 6 -30 4
c-28 4 -30 7 -33 52 -4 62 -22 61 -22 -2z"/>
<path d="M1608 1929 c-16 -9 -18 -27 -18 -141 0 -72 3 -128 8 -124 4 4 9 62
12 129 l5 122 45 -2 c41 -2 43 -1 26 13 -23 16 -54 18 -78 3z"/>
<path d="M1776 1919 c-37 -29 -56 -71 -56 -124 0 -64 23 -103 73 -125 85 -38
146 3 155 103 5 60 -20 123 -60 151 -31 22 -80 20 -112 -5z m120 -30 c26 -27
29 -37 29 -99 0 -86 -18 -110 -80 -110 -105 0 -150 126 -75 209 39 42 85 43
126 0z"/>
<path d="M2021 1923 c-19 -16 -23 -32 -28 -124 -4 -70 -2 -112 5 -125 9 -15
11 7 12 97 0 101 2 118 19 133 11 10 31 16 47 14 36 -4 42 -24 43 -156 1 -57
5 -101 10 -98 11 7 1 248 -11 264 -15 18 -72 15 -97 -5z"/>
<path d="M2366 1918 c-12 -16 -16 -47 -16 -111 0 -119 15 -147 81 -147 40 0
59 15 58 45 0 19 -1 19 -16 -2 -18 -27 -64 -31 -87 -7 -10 10 -16 33 -16 65
l0 49 55 0 55 0 0 43 c0 58 -22 87 -65 87 -24 0 -39 -7 -49 -22z m75 2 c14 -8
19 -21 19 -50 l0 -40 -45 0 c-45 0 -45 0 -45 34 0 25 7 39 22 50 27 19 24 19
49 6z"/>
<path d="M2562 1924 c-21 -14 -22 -22 -22 -140 0 -84 3 -123 10 -119 7 4 10
48 9 115 -3 114 3 133 42 143 13 3 28 -2 40 -14 16 -16 19 -34 19 -128 0 -69
4 -112 11 -117 8 -5 10 31 8 125 -4 144 -7 151 -64 151 -17 0 -41 -7 -53 -16z"/>
<path d="M3339 1923 c-10 -11 -14 -46 -14 -118 0 -121 12 -145 75 -145 41 0
64 19 57 47 -4 16 -6 15 -12 -4 -6 -18 -15 -23 -41 -23 -42 0 -64 30 -64 87
l0 43 61 0 60 0 -7 48 c-10 71 -19 82 -63 82 -24 0 -44 -6 -52 -17z m73 -5 c9
-7 19 -30 22 -50 l7 -38 -51 0 -50 0 0 34 c0 25 7 39 22 50 27 19 30 19 50 4z"/>
<path d="M3480 1931 c0 -5 16 -62 36 -127 20 -66 38 -125 40 -131 2 -7 7 -13
11 -13 11 0 71 270 62 276 -9 5 -12 -4 -34 -111 -28 -132 -25 -134 -86 73 -11
37 -29 58 -29 33z"/>
</g>
</svg>
