<?xml version="1.0" standalone="no"?>
<!DOCTYPE svg PUBLIC "-//W3C//DTD SVG 20010904//EN"
 "http://www.w3.org/TR/2001/REC-SVG-20010904/DTD/svg10.dtd">
<svg version="1.0" xmlns="http://www.w3.org/2000/svg"
 width="500.000000pt" height="500.000000pt" viewBox="0 0 500.000000 500.000000"
 preserveAspectRatio="xMidYMid meet">

<g transform="translate(0.000000,500.000000) scale(0.100000,-0.100000)"
fill="#000000" stroke="none">
<path d="M873 3349 c-87 -43 -110 -130 -93 -356 16 -214 -1 -311 -68 -385 -44
-49 -82 -69 -147 -77 -44 -5 -50 -9 -50 -30 0 -20 6 -24 44 -27 93 -9 175 -84
209 -193 14 -47 17 -97 17 -303 0 -235 1 -248 21 -275 41 -55 78 -68 197 -69
88 0 110 3 122 16 26 29 -4 44 -71 35 -94 -11 -153 2 -195 44 -48 47 -53 91
-39 289 19 261 -20 396 -139 473 l-24 15 50 47 c32 30 61 71 79 110 l29 62 0
250 c0 342 -3 337 190 345 115 5 120 6 123 28 3 22 2 22 -105 22 -89 0 -115
-4 -150 -21z"/>
<path d="M3872 3348 c3 -22 8 -23 123 -28 193 -8 190 -3 190 -345 l0 -250 29
-62 c18 -39 47 -80 79 -110 l50 -47 -24 -15 c-119 -77 -158 -212 -139 -473 14
-198 9 -242 -39 -289 -42 -42 -101 -55 -195 -44 -67 9 -97 -6 -71 -35 12 -13
34 -16 122 -16 119 1 156 14 197 69 20 27 21 40 21 275 0 206 3 256 17 303 34
109 116 184 209 193 38 3 44 7 44 27 0 21 -6 25 -50 30 -65 8 -103 28 -147 77
-67 74 -84 171 -68 385 17 227 -6 314 -94 356 -35 17 -62 21 -150 21 -106 0
-107 0 -104 -22z"/>
<path d="M3400 2640 c0 -153 1 -160 20 -160 18 0 20 7 20 78 0 85 8 102 50
102 42 0 50 -17 50 -102 0 -71 2 -78 20 -78 18 0 20 7 20 75 0 41 -5 85 -11
99 -15 31 -61 49 -95 36 -14 -6 -27 -10 -30 -10 -2 0 -4 27 -4 60 0 53 -2 60
-20 60 -19 0 -20 -7 -20 -160z"/>
<path d="M1199 2753 c-5 -16 -12 -35 -15 -43 -3 -8 -23 -63 -45 -122 l-38
-108 23 0 c18 0 25 8 35 40 l12 40 58 0 59 0 16 -40 c11 -28 22 -40 36 -40 18
0 16 11 -30 141 -28 78 -53 145 -56 150 -12 20 -45 9 -55 -18z m55 -90 c22
-63 22 -63 -24 -63 -22 0 -40 3 -40 6 0 15 35 104 41 104 4 0 14 -21 23 -47z"/>
<path d="M1630 2760 c0 -13 7 -20 20 -20 13 0 20 7 20 20 0 13 -7 20 -20 20
-13 0 -20 -7 -20 -20z"/>
<path d="M2010 2630 l0 -150 74 0 c82 0 118 18 130 66 9 34 -10 81 -35 89 -18
6 -18 8 -4 28 21 30 19 59 -6 91 -19 24 -27 26 -90 26 l-69 0 0 -150z m118
104 c44 -31 21 -74 -40 -74 l-38 0 0 45 c0 43 2 45 28 45 15 0 38 -7 50 -16z
m30 -126 c7 -7 12 -24 12 -38 0 -38 -18 -50 -72 -50 l-48 0 0 50 0 50 48 0
c26 0 53 -5 60 -12z"/>
<path d="M2820 2630 l0 -150 25 0 c24 0 25 2 25 70 l0 70 56 0 c47 0 55 3 52
18 -2 13 -15 18 -56 20 l-52 3 0 45 0 44 70 0 c56 0 70 3 70 15 0 12 -17 15
-95 15 l-95 0 0 -150z"/>
<path d="M3867 2743 c-4 -3 -7 -16 -7 -29 0 -13 -8 -24 -20 -27 -11 -3 -20
-10 -20 -16 0 -6 9 -11 20 -11 18 0 20 -7 20 -78 0 -47 5 -83 12 -90 18 -18
78 -16 78 3 0 9 -9 15 -25 15 -24 0 -25 2 -25 75 0 73 1 75 25 75 16 0 25 6
25 15 0 9 -9 15 -25 15 -21 0 -25 5 -25 30 0 28 -17 40 -33 23z"/>
<path d="M1456 2685 c-20 -7 -36 -9 -36 -4 0 5 -7 9 -15 9 -12 0 -15 -18 -15
-105 0 -98 1 -105 20 -105 18 0 20 7 20 78 0 88 8 102 57 102 43 0 53 -21 53
-109 0 -65 2 -71 21 -71 20 0 21 4 18 84 -5 117 -39 150 -123 121z"/>
<path d="M1766 2690 c-35 -11 -46 -25 -46 -61 0 -31 12 -42 63 -59 30 -9 38
-16 35 -33 -4 -26 -45 -35 -78 -17 -16 9 -22 8 -27 -6 -8 -23 14 -34 69 -34
57 0 80 20 76 64 -3 26 -11 35 -50 54 -72 34 -61 81 15 61 23 -6 27 -4 27 12
0 10 -6 19 -14 19 -8 0 -20 2 -28 4 -7 2 -26 0 -42 -4z"/>
<path d="M2317 2689 c-41 -11 -56 -26 -67 -70 -13 -46 5 -97 41 -123 25 -17
105 -22 128 -7 25 16 2 29 -41 24 -48 -6 -84 16 -90 52 -3 18 3 20 76 23 l78
3 -6 32 c-4 17 -12 37 -19 44 -20 20 -69 31 -100 22z m73 -48 c15 -30 14 -31
-45 -31 -57 0 -66 8 -39 34 22 23 71 20 84 -3z"/>
<path d="M2546 2685 c-20 -7 -36 -9 -36 -4 0 5 -7 9 -15 9 -12 0 -15 -18 -15
-105 0 -98 1 -105 20 -105 18 0 20 7 20 78 0 88 8 102 57 102 43 0 53 -21 53
-109 0 -65 2 -71 21 -71 20 0 21 4 18 84 -5 117 -39 150 -123 121z"/>
<path d="M3103 2693 c-59 -11 -91 -100 -58 -163 19 -37 43 -50 94 -50 48 0 71
8 71 25 0 9 -12 11 -42 8 -34 -4 -49 0 -70 17 -16 12 -28 30 -28 41 0 17 8 19
75 19 l75 0 0 28 c0 48 -58 85 -117 75z m71 -55 c15 -24 5 -30 -53 -26 l-52 3
17 23 c19 27 71 27 88 0z"/>
<path d="M3350 2693 c-8 -3 -23 -12 -32 -21 -16 -14 -18 -13 -18 1 0 10 -8 17
-20 17 -19 0 -20 -7 -20 -105 0 -98 1 -105 20 -105 18 0 20 7 20 73 0 78 9 97
47 97 18 0 23 6 23 25 0 14 -1 25 -2 24 -2 0 -10 -3 -18 -6z"/>
<path d="M3673 2689 c-52 -15 -42 -38 15 -36 41 2 47 -1 50 -19 3 -18 -3 -22
-35 -27 -54 -9 -83 -32 -83 -67 0 -16 7 -36 16 -44 17 -18 66 -21 94 -6 13 7
21 7 25 0 9 -15 55 -12 55 4 0 8 -7 16 -15 20 -11 4 -15 22 -15 74 0 53 -4 72
-17 84 -26 22 -53 27 -90 17z m56 -165 c-16 -19 -58 -18 -66 2 -9 24 10 48 43
54 25 5 29 2 32 -18 2 -13 -2 -30 -9 -38z"/>
<path d="M1630 2585 c0 -98 1 -105 20 -105 19 0 20 7 20 105 0 98 -1 105 -20
105 -19 0 -20 -7 -20 -105z"/>
<path d="M2350 2133 c0 -37 -1 -38 -37 -38 -48 0 -69 -34 -52 -84 12 -33 29
-41 87 -39 l32 1 0 99 c0 80 -3 98 -15 98 -11 0 -15 -11 -15 -37z m1 -74 c16
-31 -4 -71 -33 -67 -28 4 -42 29 -34 61 8 34 50 37 67 6z"/>
<path d="M3070 2086 c0 -46 3 -91 6 -100 7 -17 44 -22 44 -6 0 6 -4 10 -10 10
-6 0 -10 37 -10 90 0 73 -3 90 -15 90 -12 0 -15 -16 -15 -84z"/>
<path d="M1367 2153 c-4 -3 -7 -46 -7 -95 0 -72 3 -88 15 -88 11 0 15 12 15
45 0 45 0 45 35 45 19 0 35 5 35 10 0 6 -16 10 -35 10 -32 0 -35 2 -35 30 0
29 2 30 45 30 25 0 45 5 45 10 0 11 -103 14 -113 3z"/>
<path d="M2480 2066 l0 -96 51 0 c43 0 55 5 80 29 37 37 39 88 6 127 -19 22
-34 28 -80 32 l-57 4 0 -96z m112 47 c21 -19 24 -71 5 -97 -7 -9 -32 -20 -55
-23 l-42 -6 0 70 c0 38 3 73 7 77 11 11 64 -2 85 -21z"/>
<path d="M1893 2115 c-17 -20 -19 -26 -8 -32 8 -5 15 -29 17 -58 3 -43 6 -50
26 -53 12 -2 22 1 22 7 0 6 -7 11 -15 11 -11 0 -15 12 -15 45 0 33 4 45 15 45
8 0 15 5 15 10 0 6 -6 10 -14 10 -8 0 -16 9 -18 20 -3 18 -4 18 -25 -5z"/>
<path d="M1500 2035 c0 -37 4 -65 10 -65 6 0 10 20 10 44 0 37 5 48 28 65 18
13 22 20 12 21 -9 0 -21 -5 -28 -12 -9 -9 -12 -9 -12 0 0 7 -4 12 -10 12 -6 0
-10 -28 -10 -65z"/>
<path d="M1596 2084 c-22 -21 -20 -77 2 -97 19 -18 59 -22 78 -9 37 24 39 93
4 112 -28 15 -67 12 -84 -6z m79 -43 c0 -41 -25 -62 -52 -45 -41 26 -21 87 26
82 22 -3 26 -8 26 -37z"/>
<path d="M1730 2033 c0 -48 3 -63 14 -63 11 0 16 15 18 53 3 50 4 52 33 52 29
0 30 -2 33 -52 4 -69 22 -68 22 1 0 65 -11 76 -73 74 l-47 -2 0 -63z"/>
<path d="M1986 2084 c-22 -21 -20 -77 2 -97 20 -19 77 -23 87 -7 4 6 -8 10
-29 10 -25 0 -38 6 -46 19 -15 30 -14 31 40 31 54 0 58 4 34 38 -18 26 -65 30
-88 6z m72 -21 c2 -9 -7 -13 -27 -13 -30 0 -39 9 -24 24 11 10 46 3 51 -11z"/>
<path d="M2110 2033 c0 -49 3 -63 15 -63 12 0 15 13 15 55 0 54 1 55 29 55 33
0 41 -14 41 -71 0 -21 5 -39 10 -39 13 0 13 86 0 111 -9 16 -20 19 -60 18
l-50 -2 0 -64z"/>
<path d="M2677 2082 c-41 -45 -5 -112 58 -112 19 0 35 5 35 10 0 6 -13 10 -29
10 -31 0 -65 25 -56 41 4 5 26 9 51 9 45 0 52 7 34 41 -14 25 -71 26 -93 1z
m73 -17 c0 -10 -10 -15 -30 -15 -29 0 -38 9 -23 23 13 13 53 7 53 -8z"/>
<path d="M2814 2038 c13 -35 30 -64 38 -66 10 -2 22 16 36 53 25 65 27 78 10
73 -6 -2 -19 -26 -28 -54 l-17 -49 -17 53 c-10 29 -24 52 -31 52 -11 0 -9 -14
9 -62z"/>
<path d="M2947 2082 c-41 -45 -5 -112 58 -112 19 0 35 5 35 10 0 6 -13 10 -29
10 -31 0 -65 25 -56 41 4 5 26 9 51 9 45 0 52 7 34 41 -14 25 -71 26 -93 1z
m73 -17 c0 -10 -10 -15 -30 -15 -29 0 -38 9 -23 23 13 13 53 7 53 -8z"/>
<path d="M3147 2082 c-37 -40 -9 -112 44 -112 57 0 87 60 53 108 -19 28 -74
30 -97 4z m78 -47 c0 -36 -3 -40 -27 -43 -21 -3 -30 2 -39 21 -16 36 4 69 39
65 24 -3 27 -7 27 -43z"/>
<path d="M3290 2003 c0 -55 4 -93 10 -93 6 0 10 15 10 33 0 32 2 33 30 29 41
-6 70 21 70 63 0 44 -27 65 -78 63 l-42 -1 0 -94z m91 56 c8 -16 8 -28 0 -45
-18 -41 -71 -25 -71 21 0 44 50 61 71 24z"/>
<path d="M3446 2084 c-22 -21 -20 -77 2 -97 20 -19 77 -23 87 -7 4 6 -8 10
-29 10 -25 0 -38 6 -46 19 -15 30 -14 31 40 31 54 0 58 4 34 38 -18 26 -65 30
-88 6z m72 -21 c2 -9 -7 -13 -27 -13 -30 0 -39 9 -24 24 11 10 46 3 51 -11z"/>
<path d="M3570 2035 c0 -51 3 -65 15 -65 11 0 15 12 15 51 0 42 3 52 20 56 11
3 20 9 20 14 0 13 -24 11 -38 -3 -9 -9 -12 -9 -12 0 0 7 -4 12 -10 12 -6 0
-10 -28 -10 -65z"/>
</g>
</svg>
