<?xml version="1.0" standalone="no"?>
<!DOCTYPE svg PUBLIC "-//W3C//DTD SVG 20010904//EN"
 "http://www.w3.org/TR/2001/REC-SVG-20010904/DTD/svg10.dtd">
<svg version="1.0" xmlns="http://www.w3.org/2000/svg"
 width="500.000000pt" height="500.000000pt" viewBox="0 0 500.000000 500.000000"
 preserveAspectRatio="xMidYMid meet">

<g transform="translate(0.000000,500.000000) scale(0.100000,-0.100000)"
fill="#000000" stroke="none">
<path d="M0 2500 l0 -2500 2500 0 2500 0 0 2500 0 2500 -2500 0 -2500 0 0
-2500z m3566 758 c14 -22 22 -93 13 -110 -8 -15 -14 -16 -29 -8 -16 9 -20 21
-20 64 0 29 3 56 7 59 10 10 21 8 29 -5z m-1820 -13 c9 -22 -11 -65 -86 -190
-36 -60 -121 -222 -189 -358 -68 -136 -128 -246 -134 -244 -32 10 -29 36 10
113 149 297 255 498 291 552 23 35 44 74 48 85 7 25 33 57 46 57 5 0 11 -7 14
-15z m1102 -38 c28 -61 47 -130 87 -327 19 -96 49 -226 65 -289 16 -63 27
-118 24 -123 -21 -34 -55 49 -105 255 l-11 47 -94 0 c-51 0 -95 -4 -98 -8 -3
-5 -17 -67 -31 -138 -14 -71 -28 -139 -31 -151 -4 -23 -37 -32 -48 -15 -3 5 6
51 19 103 13 52 35 159 49 239 41 241 92 433 119 452 18 11 35 -3 55 -45z
m493 -183 c15 -7 32 -28 38 -45 15 -43 15 -505 0 -515 -28 -17 -34 20 -39 257
-5 238 -5 241 -29 260 -28 23 -59 24 -105 5 -64 -27 -66 -35 -66 -293 0 -225
-1 -233 -20 -233 -14 0 -21 9 -26 34 -11 59 0 459 13 482 36 63 156 87 234 48z
m239 -161 c0 -104 3 -231 6 -283 6 -84 4 -98 -11 -114 -10 -9 -21 -14 -26 -9
-10 11 -16 564 -6 581 5 6 15 12 23 12 12 0 14 -31 14 -187z m306 172 c45 -19
82 -94 65 -131 -15 -34 -41 -20 -41 22 0 48 -29 74 -82 74 -50 0 -88 -30 -88
-71 0 -32 65 -122 140 -194 64 -62 80 -92 80 -150 0 -98 -57 -154 -142 -140
-80 14 -147 111 -119 172 17 37 35 22 43 -33 13 -91 98 -127 152 -63 46 54 27
110 -68 202 -154 148 -180 259 -73 308 51 23 86 24 133 4z m-2649 -21 c10 -28
-7 -43 -125 -107 -103 -57 -222 -146 -222 -167 0 -5 65 -48 145 -96 174 -105
215 -137 215 -168 0 -12 -3 -26 -6 -29 -4 -4 -48 22 -98 57 -50 35 -134 87
-186 115 -52 29 -110 64 -128 79 l-33 27 23 35 c29 42 117 110 263 201 114 71
141 80 152 53z m720 -49 c147 -91 238 -160 264 -201 20 -33 20 -36 5 -53 -9
-10 -53 -38 -98 -62 -45 -24 -134 -79 -198 -122 -103 -69 -115 -75 -118 -56
-2 11 -1 27 2 35 6 15 182 134 282 190 35 20 64 39 64 43 0 17 -72 72 -170
130 -106 64 -170 115 -170 137 0 10 8 17 27 23 2 1 51 -28 110 -64z m2188
-475 c0 -30 -35 -40 -54 -16 -20 24 -6 48 26 44 22 -2 28 -8 28 -28z m-1258
-601 c3 -86 3 -167 -1 -182 -15 -60 -77 -77 -121 -32 -23 22 -25 31 -25 123 0
115 12 136 81 137 l39 0 0 65 c0 43 3 61 10 54 6 -6 13 -80 17 -165z m-1391
151 c36 0 64 -4 64 -10 0 -6 -30 -10 -70 -10 l-70 0 0 -52 c0 -84 7 -98 46
-98 47 0 43 -17 -6 -25 l-40 -7 0 -89 c0 -58 -4 -88 -10 -84 -6 4 -10 80 -10
197 0 169 2 189 16 184 9 -3 45 -6 80 -6z m759 -100 c36 0 39 -17 5 -25 l-30
-7 0 -98 c0 -81 3 -102 19 -121 l19 -24 26 24 c26 24 26 24 26 3 0 -41 -57
-55 -90 -22 -18 18 -20 33 -20 130 0 105 -1 110 -21 110 -12 0 -19 5 -16 13 2
6 11 11 21 9 13 -2 16 6 16 46 0 66 14 76 18 13 3 -46 5 -51 27 -51z m994 81
c27 -27 33 -70 29 -201 -3 -108 -4 -113 -31 -136 -23 -20 -39 -24 -88 -24
l-59 0 0 190 0 190 65 0 c51 0 69 -4 84 -19z m-806 -80 c27 -10 32 -21 42 -88
l7 -43 -61 0 -61 0 0 -47 c0 -55 21 -83 62 -83 21 0 31 6 35 20 7 27 25 25 21
-2 -2 -13 -15 -29 -30 -36 -22 -10 -33 -10 -62 2 -42 17 -48 35 -49 140 -1 96
6 119 36 134 28 14 31 14 60 3z m971 -1 c25 -9 46 -58 46 -107 0 -20 -6 -22
-57 -25 l-58 -3 1 -47 c0 -25 6 -53 13 -62 20 -24 66 -20 85 7 l16 22 -2 -29
c-2 -23 -9 -31 -31 -37 -38 -10 -82 7 -96 37 -6 14 -11 65 -11 115 0 82 2 92
25 114 27 28 33 29 69 15z m-1724 -14 c10 -13 5 -15 -32 -13 l-43 2 -3 -120
c-1 -66 -7 -124 -12 -129 -6 -6 -10 -6 -10 -1 -5 123 0 248 10 260 16 19 74
19 90 1z m209 -11 c38 -33 54 -83 49 -151 -7 -87 -65 -130 -141 -104 -45 14
-73 46 -87 99 -32 120 92 228 179 156z m228 -5 c15 -29 18 -250 4 -250 -15 0
-21 42 -20 143 0 53 -2 101 -6 107 -10 16 -61 12 -76 -7 -10 -11 -14 -47 -14
-124 0 -68 -4 -108 -10 -106 -6 1 -10 50 -10 120 0 136 8 150 80 145 31 -2 42
-9 52 -28z m543 11 c13 -26 13 -261 0 -261 -6 0 -10 41 -10 104 0 58 -4 116
-10 130 -10 28 -37 34 -71 16 -17 -10 -19 -22 -19 -130 0 -70 -4 -120 -10
-120 -28 0 -22 230 7 263 23 25 99 24 113 -2z m850 -53 c12 -40 27 -91 34
-113 l13 -40 22 100 c29 127 28 125 42 125 7 0 9 -9 5 -22 -3 -13 -18 -76 -33
-141 -26 -115 -39 -136 -54 -86 -4 13 -21 70 -38 125 -34 110 -36 124 -21 124
5 0 19 -33 30 -72z"/>
<path d="M2792 3133 c-17 -59 -62 -275 -62 -302 0 -24 1 -24 81 -18 44 3 83 7
85 10 15 14 -71 347 -89 347 -2 0 -9 -17 -15 -37z"/>
<path d="M2800 1913 c-30 -11 -40 -37 -40 -109 0 -90 11 -121 46 -130 22 -6
31 -2 47 17 17 21 19 34 14 112 -7 107 -19 127 -67 110z"/>
<path d="M3125 1882 c1 -216 -2 -202 45 -202 65 0 76 19 84 146 6 110 -2 170
-26 186 -7 4 -33 8 -58 8 l-45 0 0 -138z"/>
<path d="M2382 1908 c-7 -7 -12 -27 -12 -45 0 -32 1 -33 45 -33 43 0 45 1 45
29 0 16 -3 36 -6 45 -7 19 -55 21 -72 4z"/>
<path d="M3351 1901 c-6 -11 -11 -31 -11 -45 0 -24 3 -26 46 -26 l45 0 -3 43
c-3 39 -5 42 -35 45 -23 2 -34 -2 -42 -17z"/>
<path d="M1776 1891 c-78 -81 -35 -211 69 -211 52 0 73 23 82 88 16 116 -82
195 -151 123z"/>
</g>
</svg>
